<svg width="42" height="24" viewBox="0 0 42 24" fill="none" xmlns="http://www.w3.org/2000/svg">
<path d="M39.9999 10.5C40.8283 10.4999 41.4999 11.1715 41.5 11.9999C41.5001 12.8283 40.8285 13.4999 40.0001 13.5L39.9999 10.5ZM0.939425 13.0638C0.353592 12.4781 0.353515 11.5283 0.939253 10.9425L10.4844 1.3958C11.0702 0.809961 12.0199 0.809884 12.6057 1.39562C13.1916 1.98136 13.1917 2.93111 12.6059 3.51694L4.12132 12.0029L12.6073 20.4875C13.1931 21.0732 13.1932 22.023 12.6075 22.6088C12.0217 23.1947 11.072 23.1947 10.4861 22.609L0.939425 13.0638ZM40.0001 13.5L2.00012 13.5031L1.99988 10.5031L39.9999 10.5L40.0001 13.5Z" fill="#FDFDFE"/>
</svg>
