<svg width="40" height="16" viewBox="0 0 40 16" fill="none" xmlns="http://www.w3.org/2000/svg">
<path d="M1.00008 7C0.447796 6.99996 4.48562e-05 7.44763 0 7.99992C-4.48562e-05 8.5522 0.447634 8.99996 0.999919 9L1.00008 7ZM39.7071 8.71025C40.0976 8.31976 40.0977 7.68659 39.7072 7.29604L33.3437 0.931559C32.9532 0.541003 32.3201 0.540952 31.9295 0.931444C31.539 1.32194 31.5389 1.9551 31.9294 2.34566L37.5858 8.00297L31.9285 13.6594C31.5379 14.0499 31.5379 14.683 31.9284 15.0736C32.3189 15.4641 32.952 15.4642 33.3426 15.0737L39.7071 8.71025ZM0.999919 9L38.9999 9.00309L39.0001 7.00309L1.00008 7L0.999919 9Z" fill="#FDFDFE"/>
</svg>
