<svg width="42" height="24" viewBox="0 0 42 24" fill="none" xmlns="http://www.w3.org/2000/svg">
<path d="M2.00012 10.5C1.17169 10.4999 0.500067 11.1715 0.5 11.9999C0.499933 12.8283 1.17145 13.4999 1.99988 13.5L2.00012 10.5ZM41.0606 13.0638C41.6464 12.4781 41.6465 11.5283 41.0608 10.9425L31.5156 1.3958C30.9298 0.809961 29.9801 0.809884 29.3943 1.39562C28.8084 1.98136 28.8084 2.93111 29.3941 3.51694L37.8787 12.0029L29.3927 20.4875C28.8069 21.0732 28.8068 22.023 29.3925 22.6088C29.9783 23.1947 30.928 23.1947 31.5139 22.609L41.0606 13.0638ZM1.99988 13.5L39.9999 13.5031L40.0001 10.5031L2.00012 10.5L1.99988 13.5Z" fill="#FDFDFE"/>
</svg>
