<svg width="44" height="44" viewBox="0 0 44 44" fill="none" xmlns="http://www.w3.org/2000/svg">
<path fill-rule="evenodd" clip-rule="evenodd" d="M0.0273132 21.5137C0.0273132 9.63199 9.65931 0 21.541 0C33.4226 0 43.0546 9.63199 43.0546 21.5137C43.0546 33.3953 33.4226 43.0273 21.541 43.0273C9.65931 43.0273 0.0273132 33.3953 0.0273132 21.5137ZM24.7307 16.7364H30.8077V14.9953H24.7307V16.7364ZM27.8057 17.7116C28.7191 17.7116 29.5408 17.874 30.2721 18.1975C31.0048 18.5196 31.6079 19.0307 32.0828 19.7282C32.5159 20.3432 32.7939 21.0566 32.9207 21.8673C32.9949 22.3411 33.0246 23.028 33.0124 23.9211H25.3717C25.4175 24.9581 25.7791 25.6862 26.4699 26.1028C26.8882 26.3624 27.3915 26.4928 27.9825 26.4928C28.6045 26.4928 29.1131 26.3344 29.5031 26.0189C29.7176 25.8472 29.9065 25.6103 30.0684 25.3068H32.8681C32.7939 25.9191 32.4539 26.5434 31.8521 27.177C30.913 28.1819 29.5975 28.6851 27.9069 28.6851C26.5104 28.6851 25.2786 28.2618 24.214 27.4126C23.1441 26.5647 22.6125 25.183 22.6125 23.2716C22.6125 21.4786 23.0941 20.1036 24.0561 19.1465C25.0209 18.1922 26.2689 17.7116 27.8057 17.7116ZM20.5951 15.8342C19.8733 14.8651 18.6495 14.3686 16.9198 14.3433H10.0669V28.333H16.457C17.1775 28.333 17.844 28.2718 18.4606 28.1454C19.0772 28.0176 19.6102 27.7846 20.0622 27.4426C20.4642 27.1444 20.7988 26.777 21.066 26.3417C21.4883 25.6842 21.6988 24.9401 21.6988 24.1108C21.6988 23.3069 21.5139 22.6227 21.1469 22.061C20.7759 21.4979 20.2308 21.0866 19.5076 20.8257C19.9839 20.5861 20.3441 20.3199 20.5897 20.0297C21.0282 19.5106 21.2454 18.8224 21.2454 17.9692C21.2454 17.14 21.0282 16.4292 20.5951 15.8342ZM15.981 16.771H12.8939V19.8577H16.3426C16.9565 19.8577 17.457 19.7419 17.8429 19.5103C18.2261 19.2787 18.4191 18.8687 18.4191 18.2831C18.4191 17.6295 18.1654 17.1996 17.6581 16.9892C17.2182 16.8442 16.6596 16.771 15.981 16.771ZM26.1712 20.5351C26.5584 20.1411 27.1062 19.9441 27.8078 19.9441C28.4555 19.9441 28.9965 20.1291 29.4364 20.5004C29.8708 20.8745 30.1164 21.4176 30.1663 22.1364H25.4399C25.5398 21.4628 25.784 20.9291 26.1712 20.5351ZM16.3857 22.1724H12.8939V25.9034H16.3372C16.9524 25.9034 17.4328 25.8209 17.7741 25.6572C18.3961 25.351 18.7064 24.7707 18.7064 23.9108C18.7064 23.1814 18.4069 22.6822 17.8038 22.4093C17.4665 22.2576 16.9929 22.1777 16.3857 22.1724Z" fill="white"/>
</svg>
