<svg width="44" height="43" viewBox="0 0 44 43" fill="none" xmlns="http://www.w3.org/2000/svg">
<path d="M43.0273 21.5C43.0273 33.3741 33.4014 43 21.5273 43C9.65319 43 0.0273132 33.3741 0.0273132 21.5C0.0273132 9.62588 9.65319 0 21.5273 0C33.4014 0 43.0273 9.62588 43.0273 21.5Z" fill="url(#paint0_linear_1_474)"/>
<path d="M18.0873 27.95V42.57C18.0873 42.8075 18.2798 43 18.5173 43H24.5373C24.7748 43 24.9673 42.8075 24.9673 42.57V27.95C24.9673 27.7125 25.1598 27.52 25.3973 27.52H29.6973C29.9348 27.52 30.1273 27.3275 30.1273 27.09V21.93C30.1273 21.6925 29.9348 21.5 29.6973 21.5H25.3973C25.1598 21.5 24.9673 21.3078 24.9673 21.0703V17.2C24.9673 15.48 27.1173 14.62 27.9773 14.62H30.5573C30.7948 14.62 30.9873 14.4275 30.9873 14.19V9.03C30.9873 8.79252 30.7949 8.6 30.5574 8.6H24.9673C20.8393 8.6 18.0873 12.9 18.0873 15.48V21.07C18.0873 21.3075 17.8948 21.5 17.6573 21.5H13.3573C13.1198 21.5 12.9273 21.6925 12.9273 21.93V27.09C12.9273 27.3275 13.1198 27.52 13.3573 27.52H17.6573C17.8948 27.52 18.0873 27.7125 18.0873 27.95Z" fill="#282626"/>
<defs>
<linearGradient id="paint0_linear_1_474" x1="21.5273" y1="0" x2="21.5273" y2="43" gradientUnits="userSpaceOnUse">
<stop stop-color="white"/>
<stop offset="1" stop-color="white"/>
</linearGradient>
</defs>
</svg>
