<svg width="42" height="42" viewBox="0 0 42 42" fill="none" xmlns="http://www.w3.org/2000/svg">
<path d="M19.208 15.76L21.288 16.144L23.368 15.76V34H19.208V15.76ZM21.288 13.488C20.4987 13.488 19.848 13.2747 19.336 12.848C18.824 12.4 18.568 11.824 18.568 11.12C18.568 10.416 18.824 9.85067 19.336 9.424C19.848 8.976 20.4987 8.752 21.288 8.752C22.0987 8.752 22.7493 8.976 23.24 9.424C23.752 9.85067 24.008 10.416 24.008 11.12C24.008 11.824 23.752 12.4 23.24 12.848C22.7493 13.2747 22.0987 13.488 21.288 13.488Z" fill="#004F94"/>
<path fill-rule="evenodd" clip-rule="evenodd" d="M21 39C30.9411 39 39 30.9411 39 21C39 11.0589 30.9411 3 21 3C11.0589 3 3 11.0589 3 21C3 30.9411 11.0589 39 21 39ZM21 42C32.598 42 42 32.598 42 21C42 9.40202 32.598 0 21 0C9.40202 0 0 9.40202 0 21C0 32.598 9.40202 42 21 42Z" fill="#004F94"/>
</svg>
