<svg width="45" height="43" viewBox="0 0 45 43" fill="none" xmlns="http://www.w3.org/2000/svg">
<g clip-path="url(#clip0_1_473)">
<path fill-rule="evenodd" clip-rule="evenodd" d="M12.9573 0.129C15.3033 0.0234545 16.0513 0 22.0273 0C28.0033 0 28.7513 0.0254091 31.0953 0.129C33.4393 0.232591 35.0393 0.598091 36.4393 1.12777C37.9053 1.66918 39.2353 2.5155 40.3353 3.61005C41.4553 4.68309 42.3193 5.98091 42.8713 7.41555C43.4153 8.78373 43.7873 10.3474 43.8953 12.6342C44.0033 14.9308 44.0273 15.6618 44.0273 21.5C44.0273 27.3402 44.0013 28.0712 43.8953 30.3639C43.7893 32.6507 43.4153 34.2143 42.8713 35.5825C42.3193 37.0173 41.4539 38.3173 40.3353 39.3919C39.2353 40.4865 37.9053 41.3308 36.4393 41.8703C35.0393 42.4019 33.4393 42.7655 31.0993 42.871C28.7513 42.9765 28.0033 43 22.0273 43C16.0513 43 15.3033 42.9746 12.9573 42.871C10.6173 42.7674 9.01731 42.4019 7.61731 41.8703C6.14915 41.3307 4.81895 40.485 3.71931 39.3919C2.60007 38.3182 1.73394 37.0189 1.18131 35.5844C0.639313 34.2163 0.267313 32.6526 0.159313 30.3658C0.0513132 28.0692 0.0273132 27.3382 0.0273132 21.5C0.0273132 15.6598 0.0533132 14.9288 0.159313 12.6381C0.265313 10.3474 0.639313 8.78373 1.18131 7.41555C1.73476 5.98107 2.60155 4.68175 3.72131 3.60809C4.81939 2.51452 6.14826 1.66809 7.61531 1.12777C9.01531 0.598091 10.6153 0.234545 12.9553 0.129H12.9573ZM30.9173 3.999C28.5973 3.89541 27.9013 3.87391 22.0273 3.87391C16.1533 3.87391 15.4573 3.89541 13.1373 3.999C10.9913 4.09477 9.82731 4.44464 9.05131 4.73977C8.02531 5.13068 7.29131 5.59391 6.52131 6.34641C5.7914 7.04037 5.22967 7.88519 4.87731 8.81891C4.57531 9.57727 4.21731 10.7148 4.11931 12.812C4.01331 15.0793 3.99131 15.7595 3.99131 21.5C3.99131 27.2405 4.01331 27.9207 4.11931 30.188C4.21731 32.2852 4.57531 33.4227 4.87731 34.1811C5.22931 35.1134 5.79131 35.9597 6.52131 36.6536C7.23131 37.367 8.09731 37.9162 9.05131 38.2602C9.82731 38.5554 10.9913 38.9052 13.1373 39.001C15.4573 39.1046 16.1513 39.1261 22.0273 39.1261C27.9033 39.1261 28.5973 39.1046 30.9173 39.001C33.0633 38.9052 34.2273 38.5554 35.0033 38.2602C36.0293 37.8693 36.7633 37.4061 37.5333 36.6536C38.2633 35.9597 38.8253 35.1134 39.1773 34.1811C39.4793 33.4227 39.8373 32.2852 39.9353 30.188C40.0413 27.9207 40.0633 27.2405 40.0633 21.5C40.0633 15.7595 40.0413 15.0793 39.9353 12.812C39.8373 10.7148 39.4793 9.57727 39.1773 8.81891C38.7773 7.81623 38.3033 7.09891 37.5333 6.34641C36.8232 5.63314 35.9587 5.08418 35.0033 4.73977C34.2273 4.44464 33.0633 4.09477 30.9173 3.999ZM19.2173 28.1279C20.7866 28.7663 22.5341 28.8524 24.1612 28.3716C25.7883 27.8908 27.1941 26.8729 28.1385 25.4917C29.083 24.1104 29.5074 22.4516 29.3394 20.7985C29.1714 19.1454 28.4213 17.6006 27.2173 16.428C26.4498 15.6783 25.5217 15.1044 24.5 14.7473C23.4782 14.3903 22.3882 14.2591 21.3083 14.3632C20.2284 14.4673 19.1856 14.8041 18.2549 15.3493C17.3242 15.8945 16.5288 16.6346 15.9259 17.5163C15.323 18.3981 14.9277 19.3994 14.7683 20.4484C14.609 21.4973 14.6896 22.5678 15.0044 23.5826C15.3192 24.5974 15.8603 25.5315 16.5888 26.3174C17.3172 27.1034 18.215 27.7217 19.2173 28.1279ZM14.0313 13.6857C15.0814 12.6595 16.328 11.8455 17.6999 11.2902C19.0719 10.7348 20.5423 10.4489 22.0273 10.4489C23.5123 10.4489 24.9828 10.7348 26.3547 11.2902C27.7267 11.8455 28.9733 12.6595 30.0233 13.6857C31.0734 14.7119 31.9063 15.9302 32.4746 17.2709C33.0429 18.6117 33.3354 20.0488 33.3354 21.5C33.3354 22.9512 33.0429 24.3883 32.4746 25.7291C31.9063 27.0698 31.0734 28.2881 30.0233 29.3143C27.9026 31.3867 25.0264 32.5511 22.0273 32.5511C19.0282 32.5511 16.152 31.3867 14.0313 29.3143C11.9106 27.2418 10.7193 24.4309 10.7193 21.5C10.7193 18.5691 11.9106 15.7582 14.0313 13.6857ZM35.8433 12.0947C36.1035 11.8548 36.3118 11.5664 36.4559 11.2464C36.6 10.9264 36.6769 10.5815 36.6821 10.2319C36.6874 9.88236 36.6208 9.53534 36.4863 9.2114C36.3518 8.88746 36.1522 8.59318 35.8992 8.34599C35.6463 8.09879 35.3452 7.90371 35.0137 7.77228C34.6822 7.64086 34.3271 7.57577 33.9694 7.58087C33.6118 7.58596 33.2588 7.66114 32.9314 7.80195C32.604 7.94276 32.3088 8.14634 32.0633 8.40064C31.5859 8.89519 31.3246 9.5521 31.3347 10.2319C31.3449 10.9117 31.6257 11.5609 32.1176 12.0416C32.6096 12.5224 33.2738 12.7969 33.9694 12.8068C34.6651 12.8167 35.3373 12.5613 35.8433 12.0947Z" fill="white"/>
</g>
<defs>
<clipPath id="clip0_1_473">
<rect width="44" height="43" fill="white" transform="translate(0.0273132)"/>
</clipPath>
</defs>
</svg>
