<svg width="20" height="22" viewBox="0 0 20 22" fill="none" xmlns="http://www.w3.org/2000/svg">
<path d="M1.43407 17.5562C1.5893 19.0925 2.82481 20.333 4.39021 20.5344C6.20474 20.7678 8.08046 21 10 21C11.9195 21 13.7953 20.7678 15.6098 20.5344C17.1752 20.333 18.4107 19.0925 18.5659 17.5562C18.7797 15.4401 19 13.2472 19 11C19 9.67871 18.9239 8.37617 18.8176 7.097C18.5621 4.01952 16.047 1.4482 12.9039 1.15088C11.9489 1.06055 10.9802 1 10 1C8.08046 1 6.20474 1.23222 4.39021 1.46562C2.82481 1.66697 1.5893 2.9075 1.43407 4.44382C1.22026 6.55985 1 8.75281 1 11C1 13.2472 1.22026 15.4401 1.43407 17.5562Z" stroke="#EA6200" stroke-width="1.5"/>
<path d="M11.712 4.19999V7.69477H15.7278C17.5139 7.69477 18.9658 9.09374 18.9999 10.8321C18.9938 9.56837 18.9197 8.32197 18.818 7.097C18.5625 4.01952 16.0473 1.4482 12.9042 1.15088C11.9492 1.06055 10.9805 1 10.0004 1C9.61759 1 9.23656 1.00923 8.85742 1.02587C10.4674 1.22664 11.712 2.5712 11.712 4.19999Z" stroke="#EA6200" stroke-width="1.5" stroke-linejoin="round"/>
</svg>
