<svg width="24" height="23" viewBox="0 0 24 23" fill="none" xmlns="http://www.w3.org/2000/svg">
<path d="M11.9999 7.80354C14.1941 7.80354 15.4284 6.62069 15.4284 4.51783C15.4284 2.41497 14.1941 1.23212 11.9999 1.23212C9.80557 1.23212 8.57129 2.41497 8.57129 4.51783C8.57129 6.62069 9.80557 7.80354 11.9999 7.80354Z" stroke="#F98012" stroke-width="1.5" stroke-linecap="round" stroke-linejoin="round"/>
<path d="M3.85756 21.7679C5.50328 21.7679 6.42899 20.8807 6.42899 19.3036C6.42899 17.7264 5.50328 16.8393 3.85756 16.8393C2.21185 16.8393 1.28613 17.7264 1.28613 19.3036C1.28613 20.8807 2.21185 21.7679 3.85756 21.7679Z" stroke="#F98012" stroke-width="1.5" stroke-linecap="round" stroke-linejoin="round"/>
<path d="M12.0001 21.7679C13.6459 21.7679 14.5716 20.8807 14.5716 19.3036C14.5716 17.7264 13.6459 16.8393 12.0001 16.8393C10.3544 16.8393 9.42871 17.7264 9.42871 19.3036C9.42871 20.8807 10.3544 21.7679 12.0001 21.7679Z" stroke="#F98012" stroke-width="1.5" stroke-linecap="round" stroke-linejoin="round"/>
<path d="M20.1427 21.7679C21.7884 21.7679 22.7141 20.8807 22.7141 19.3036C22.7141 17.7264 21.7884 16.8393 20.1427 16.8393C18.497 16.8393 17.5713 17.7264 17.5713 19.3036C17.5713 20.8807 18.497 21.7679 20.1427 21.7679Z" stroke="#F98012" stroke-width="1.5" stroke-linecap="round" stroke-linejoin="round"/>
<path d="M3.42871 16.0178V13.9107C3.42871 12.8061 4.32414 11.9107 5.42871 11.9107H18.5716C19.6761 11.9107 20.5716 12.8061 20.5716 13.9107V16.0178" stroke="#F98012" stroke-width="1.5"/>
<path d="M12 7.80359V16.0179" stroke="#F98012" stroke-width="1.5"/>
</svg>
