<svg width="35" height="35" viewBox="0 0 35 35" fill="none" xmlns="http://www.w3.org/2000/svg">
<path d="M31.8063 5.7459C29.5604 11.3459 23.9313 18.9584 19.2208 22.7355L16.3479 25.0396C15.9833 25.3021 15.6188 25.5355 15.2104 25.6959C15.2104 25.4334 15.1958 25.1417 15.1521 24.8646C14.9917 23.6396 14.4375 22.5021 13.4604 21.5251C12.4688 20.5334 11.2583 19.9501 10.0188 19.7896C9.72709 19.7751 9.43542 19.7459 9.14375 19.7751C9.30417 19.323 9.55209 18.9001 9.85834 18.5501L12.1333 15.6771C15.8958 10.9667 23.5375 5.3084 29.1229 3.07715C29.9833 2.75632 30.8146 2.98965 31.3396 3.52923C31.8938 4.06882 32.1563 4.90007 31.8063 5.7459Z" stroke="#004F94" stroke-width="3" stroke-linecap="round" stroke-linejoin="round"/>
<path d="M15.2104 25.6959C15.2104 27.3001 14.5979 28.8313 13.4458 29.998C12.5562 30.8876 11.3458 31.5001 9.90208 31.6897L6.31458 32.0834C4.36041 32.3022 2.68333 30.6397 2.91666 28.6563L3.31041 25.0688C3.66041 21.8751 6.32916 19.8334 9.15833 19.7751C9.44999 19.7605 9.75624 19.7751 10.0333 19.7897C11.2729 19.9501 12.4833 20.5188 13.475 21.5251C14.4521 22.5022 15.0062 23.6397 15.1667 24.8647C15.1812 25.1417 15.2104 25.4188 15.2104 25.6959Z" stroke="#004F94" stroke-width="3" stroke-linecap="round" stroke-linejoin="round"/>
<path d="M20.7667 21.102C20.7667 17.2958 17.675 14.2041 13.8687 14.2041" stroke="#004F94" stroke-width="3" stroke-linecap="round" stroke-linejoin="round"/>
</svg>
