<svg width="39" height="38" viewBox="0 0 39 38" fill="none" xmlns="http://www.w3.org/2000/svg">
<path d="M2 36L37 36" stroke="#004F94" stroke-width="3" stroke-linecap="round"/>
<path d="M4.79999 20.0999C4.79999 16.8065 5.08551 13.4133 5.39782 11.9529C5.49099 11.5172 5.82236 11.203 6.24761 11.0702C7.14697 10.7893 8.5294 10.4999 10.4 10.4999C12.2706 10.4999 13.6529 10.7893 14.5522 11.0702C14.9774 11.203 15.3088 11.5172 15.402 11.9529C15.7142 13.4133 15.9997 16.8065 15.9998 20.0999C16 23.3933 15.7144 26.7866 15.4021 28.247C15.3089 28.6826 14.9775 28.9968 14.5523 29.1296C13.6529 29.4105 12.2705 29.7 10.3999 29.7C8.5293 29.7 7.14687 29.4105 6.24751 29.1296C5.82227 28.9968 5.49089 28.6826 5.39773 28.247C5.08544 26.7866 4.79999 23.3933 4.79999 20.0999Z" stroke="#004F94" stroke-width="3"/>
<path d="M23 15.8999C23 10.173 23.2987 5.33465 23.6193 3.56029C23.6985 3.12188 24.0224 2.80305 24.4476 2.67023C25.347 2.38934 26.7294 2.09991 28.6 2.09991C30.4706 2.09991 31.8529 2.38933 32.7522 2.67022C33.1775 2.80305 33.5013 3.12189 33.5805 3.56029C33.9011 5.33465 34.1998 10.173 34.1998 15.8999C34.1998 21.6268 33.9012 26.4652 33.5806 28.2396C33.5014 28.678 33.1776 28.9968 32.7523 29.1296C31.8529 29.4105 30.4705 29.7 28.5999 29.7C26.7293 29.7 25.3469 29.4105 24.4475 29.1296C24.0223 28.9968 23.6984 28.678 23.6192 28.2396C23.2987 26.4652 23 21.6268 23 15.8999Z" stroke="#004F94" stroke-width="3"/>
</svg>
