<svg width="20" height="22" viewBox="0 0 20 22" fill="none" xmlns="http://www.w3.org/2000/svg">
<path d="M4.28977 14.421C6.10666 14.421 7.57954 12.8894 7.57954 11C7.57954 9.11058 6.10666 7.57892 4.28977 7.57892C2.47288 7.57892 1 9.11058 1 11C1 12.8894 2.47288 14.421 4.28977 14.421Z" stroke="#EA6200" stroke-width="1.5" stroke-linecap="round" stroke-linejoin="round"/>
<path d="M15.7107 7.84211C17.5276 7.84211 19.0004 6.31045 19.0004 4.42105C19.0004 2.53166 17.5276 1 15.7107 1C13.8938 1 12.4209 2.53166 12.4209 4.42105C12.4209 6.31045 13.8938 7.84211 15.7107 7.84211Z" stroke="#EA6200" stroke-width="1.5" stroke-linecap="round" stroke-linejoin="round"/>
<path d="M15.7107 21C17.5276 21 19.0004 19.4683 19.0004 17.579C19.0004 15.6896 17.5276 14.1579 15.7107 14.1579C13.8938 14.1579 12.4209 15.6896 12.4209 17.579C12.4209 19.4683 13.8938 21 15.7107 21Z" stroke="#EA6200" stroke-width="1.5" stroke-linecap="round" stroke-linejoin="round"/>
<path d="M5.81543 8.00537C8.8195 6.24343 9.0018 6.22859 12.4205 5.22577" stroke="#EA6200" stroke-width="1.5" stroke-linecap="round" stroke-linejoin="round"/>
<path d="M5.81543 13.9946C8.8195 15.7566 9.0018 15.7714 12.4205 16.7742" stroke="#EA6200" stroke-width="1.5" stroke-linecap="round" stroke-linejoin="round"/>
</svg>
