<svg width="44" height="44" viewBox="0 0 44 44" fill="none" xmlns="http://www.w3.org/2000/svg">
<path fill-rule="evenodd" clip-rule="evenodd" d="M21.5137 0C9.63199 0 0 9.63199 0 21.5137C0 33.3953 9.63199 43.0273 21.5137 43.0273C33.3953 43.0273 43.0273 33.3953 43.0273 21.5137C43.0273 9.63199 33.3953 0 21.5137 0ZM10.3283 17.8187H15.2038V32.4675H10.3283V17.8187ZM15.5245 13.2871C15.4929 11.8508 14.4658 10.7568 12.7979 10.7568C11.13 10.7568 10.0396 11.8508 10.0396 13.2871C10.0396 14.6937 11.0978 15.8191 12.7346 15.8191H12.7658C14.4658 15.8191 15.5245 14.6937 15.5245 13.2871ZM27.1729 17.4731C30.3812 17.4731 32.7864 19.5672 32.7864 24.0667L32.7862 32.4658H27.9109V24.6287C27.9109 22.6602 27.2054 21.3169 25.4405 21.3169C24.0935 21.3169 23.2912 22.2225 22.9389 23.0971C22.8099 23.4106 22.7783 23.8473 22.7783 24.2851V32.4662H17.9022C17.9022 32.4662 17.9665 19.192 17.9022 17.8174H22.7783V19.8923C23.4254 18.8949 24.5843 17.4731 27.1729 17.4731Z" fill="white"/>
</svg>
