<svg width="95" height="59" viewBox="0 0 190 117" fill="none" xmlns="http://www.w3.org/2000/svg">
<path fill-rule="evenodd" clip-rule="evenodd" d="M77.5128 90.4168C78.6314 91.9123 79.7882 93.3669 80.981 94.7746C92.1331 107.936 106.428 117 121.955 117C138.286 117 153.123 106.974 164.363 92.6983C164.398 92.6995 164.433 92.7002 164.467 92.7002C177.619 92.7002 185.769 87.7162 188.766 80.3128C191.683 73.1065 189.218 64.7153 183.591 58.9417C183.161 58.5008 182.621 58.2304 182.056 58.1319C183.828 52.102 184.989 46.0519 185.452 40.2224C185.602 38.3286 185.679 36.4582 185.679 34.6192L180.042 34.6192C171.832 34.6193 166.65 34.6192 160.442 34.6192C152.937 34.6192 143.933 34.6191 126.265 34.6192C112.151 34.6192 107.341 34.6192 103.076 34.6192C97.0295 34.6193 92.0761 34.6193 63.2528 34.6192L57.6158 34.6192C57.6158 36.4582 57.6942 38.3286 57.8477 40.2224C58.4142 47.2083 60.0037 54.5109 62.4569 61.716C62.7091 62.4567 62.9704 63.1964 63.2407 63.9347L69.1013 63.5197C68.6415 62.3243 68.2063 61.1236 67.7964 59.9198C65.5228 53.2424 64.0596 46.5528 63.5045 40.2224C92.1059 40.2225 97.0475 40.2224 103.077 40.2224H103.117C107.372 40.2223 112.195 40.2223 126.265 40.2223C143.928 40.2223 152.932 40.2223 160.436 40.2224C166.584 40.2224 171.725 40.2224 179.796 40.2224C178.503 55.2982 172.185 72.1924 162.476 85.835C151.479 101.29 137.034 111.397 121.955 111.397C108.712 111.397 95.8515 103.627 85.2925 91.1651C85.1365 90.981 84.9811 90.796 84.8264 90.6101L77.5128 90.4168ZM183.536 78.2214C181.934 82.1792 177.569 86.0125 168.577 86.9035C173.402 79.7179 177.373 71.7601 180.269 63.6303C184.135 68.0824 185.337 73.7732 183.536 78.2214Z" fill="#004F94"/>
<path d="M120.371 25.7145L134.792 1M106.565 25.7145L120.986 1M133.625 25.7145L148.046 1" stroke="white" stroke-width="4"/>
<path d="M0 70.5134H4.02809L7.63341 78.8014L8.69034 81.1244L9.98215 78.1127L6.55299 70.5134H9.93517L11.6145 74.599L13.2939 70.5134H16.6761L13.2352 78.1127L14.5387 81.1244L15.5956 78.8014L19.201 70.5134H23.229L16.6643 84.2995H12.8828L11.6145 81.638L10.3462 84.2995H6.56473L0 70.5134Z" fill="white"/>
<path d="M25.0023 77.3656C25.0023 76.4317 25.1942 75.5407 25.5778 74.6924C25.9614 73.8364 26.5134 73.0815 27.2337 72.4278C27.9539 71.7741 28.8347 71.2527 29.876 70.8636C30.9251 70.4745 32.1151 70.2799 33.4461 70.2799C34.7692 70.2799 35.9592 70.4784 37.0162 70.8753C38.0809 71.2644 38.9813 71.8014 39.7172 72.4862C40.461 73.171 41.0286 73.9765 41.42 74.9025C41.8193 75.8286 42.019 76.8208 42.019 77.8792C42.019 78.0115 42.0151 78.1555 42.0072 78.3111C42.0072 78.459 41.9994 78.5952 41.9837 78.7197H28.8778C29.0265 79.1321 29.2653 79.5096 29.5941 79.852C29.9308 80.1944 30.3496 80.4901 30.8507 80.7392C31.3518 80.9882 31.9311 81.1827 32.5888 81.3228C33.2464 81.4551 33.9745 81.5213 34.7731 81.5213C35.5717 81.5213 36.3663 81.4396 37.1571 81.2761C37.9478 81.1049 38.7033 80.8909 39.4236 80.6341L40.598 83.2723C40.1439 83.4824 39.682 83.6691 39.2122 83.8326C38.7503 83.9882 38.2649 84.1205 37.756 84.2295C37.2549 84.3306 36.7265 84.4084 36.1706 84.4629C35.6226 84.5174 35.0432 84.5446 34.4325 84.5446C32.8745 84.5446 31.5084 84.3579 30.334 83.9843C29.1596 83.6108 28.1771 83.101 27.3863 82.4551C26.5956 81.8092 26.0006 81.0504 25.6013 80.1788C25.202 79.3072 25.0023 78.3695 25.0023 77.3656ZM38.3314 76.0232C38.2062 75.6418 38.0105 75.2878 37.7443 74.9609C37.4859 74.6263 37.161 74.3383 36.7695 74.0971C36.3781 73.8481 35.924 73.6535 35.4073 73.5134C34.8905 73.3733 34.3229 73.3033 33.7044 73.3033C33.0468 73.3033 32.4479 73.3772 31.9076 73.5251C31.3674 73.673 30.8938 73.8714 30.4867 74.1204C30.0795 74.3695 29.739 74.6574 29.465 74.9843C29.1988 75.3111 29.003 75.6574 28.8778 76.0232H38.3314Z" fill="white"/>
<path d="M45.6713 64.9336H49.1474V71.8208C49.4527 71.6107 49.8129 71.4122 50.2278 71.2255C50.6428 71.0387 51.089 70.8753 51.5666 70.7352C52.0442 70.5951 52.5374 70.4862 53.0463 70.4083C53.5552 70.3227 54.0641 70.2799 54.573 70.2799C55.7474 70.2799 56.8239 70.4511 57.8025 70.7936C58.789 71.136 59.6345 71.6185 60.3392 72.241C61.0438 72.8636 61.5918 73.6107 61.9833 74.4823C62.3826 75.3461 62.5822 76.3033 62.5822 77.3539C62.5822 78.4512 62.3747 79.4434 61.9598 80.3306C61.5448 81.21 60.9694 81.9649 60.2335 82.5952C59.5053 83.2178 58.6363 83.7003 57.6264 84.0427C56.6242 84.3773 55.536 84.5446 54.3616 84.5446C53.8605 84.5446 53.3634 84.5135 52.8702 84.4513C52.3848 84.389 51.915 84.3034 51.4609 84.1944C51.0147 84.0855 50.5919 83.9571 50.1926 83.8092C49.8011 83.6536 49.4527 83.4863 49.1474 83.3073V84.2995H45.6713V64.9336ZM49.1474 79.9687C49.4997 80.2489 49.8716 80.4862 50.2631 80.6808C50.6545 80.8753 51.0538 81.0349 51.4609 81.1594C51.868 81.2839 52.2791 81.3773 52.694 81.4396C53.1089 81.494 53.5121 81.5213 53.9036 81.5213C54.7022 81.5213 55.4107 81.4162 56.0292 81.2061C56.6555 80.9882 57.1801 80.6925 57.6029 80.3189C58.0335 79.9454 58.3623 79.5057 58.5893 78.9998C58.8164 78.494 58.9299 77.9454 58.9299 77.3539C58.9299 76.8014 58.8164 76.28 58.5893 75.7897C58.3701 75.2994 58.0491 74.8714 57.6264 74.5057C57.2114 74.1321 56.7064 73.8403 56.1114 73.6302C55.5242 73.4123 54.8627 73.3033 54.1267 73.3033C53.657 73.3033 53.1872 73.35 52.7175 73.4434C52.2477 73.529 51.7936 73.6535 51.3552 73.8169C50.9246 73.9804 50.5175 74.1788 50.1339 74.4123C49.7581 74.6457 49.4293 74.9064 49.1474 75.1944V79.9687Z" fill="white"/>
<path d="M66.3519 80.0738C67.2914 80.6341 68.3249 81.0466 69.4523 81.3111C70.5797 81.5757 71.7345 81.708 72.9167 81.708C73.7152 81.708 74.3807 81.6536 74.9131 81.5446C75.4455 81.4357 75.8722 81.2956 76.1932 81.1244C76.5141 80.9532 76.7412 80.7586 76.8743 80.5407C77.0074 80.3228 77.0739 80.101 77.0739 79.8753C77.0739 79.5485 76.9291 79.2683 76.6394 79.0349C76.3576 78.8014 75.8878 78.6847 75.2302 78.6847C74.9248 78.6847 74.596 78.7041 74.2437 78.743C73.8914 78.7819 73.5195 78.8247 73.1281 78.8714C72.7444 78.9104 72.3412 78.9493 71.9184 78.9882C71.5035 79.0271 71.0807 79.0465 70.6501 79.0465C69.7106 79.0465 68.9081 78.9454 68.2427 78.743C67.585 78.5407 67.0487 78.2644 66.6338 77.9142C66.2188 77.564 65.9174 77.1516 65.7295 76.6769C65.5416 76.1944 65.4477 75.6769 65.4477 75.1243C65.4477 74.4239 65.6121 73.778 65.9409 73.1866C66.2697 72.5951 66.7395 72.0854 67.3501 71.6574C67.9608 71.2216 68.6968 70.8831 69.558 70.6418C70.427 70.4006 71.3939 70.2799 72.4587 70.2799C73.0145 70.2799 73.5939 70.315 74.1967 70.385C74.8074 70.4473 75.4063 70.5329 75.9935 70.6418C76.5807 70.7508 77.1444 70.8792 77.6846 71.027C78.2248 71.1671 78.7024 71.3189 79.1173 71.4823L78.0252 74.1671C77.1405 73.8403 76.2558 73.5835 75.3711 73.3967C74.4942 73.2021 73.59 73.1049 72.6583 73.1049C72.0085 73.1049 71.4565 73.1554 71.0024 73.2566C70.5562 73.35 70.1921 73.4784 69.9103 73.6418C69.6284 73.7975 69.4209 73.9804 69.2878 74.1905C69.1626 74.3928 69.1 74.6068 69.1 74.8325C69.1 74.9959 69.1313 75.1438 69.1939 75.2761C69.2644 75.4084 69.374 75.5251 69.5227 75.6263C69.6793 75.7197 69.879 75.7936 70.1217 75.8481C70.3722 75.8948 70.6775 75.9181 71.0377 75.9181C71.3665 75.9181 71.7149 75.8987 72.0829 75.8597C72.4508 75.8208 72.8345 75.7819 73.2337 75.743C73.633 75.6963 74.0441 75.6535 74.4668 75.6146C74.8974 75.5757 75.3359 75.5562 75.7821 75.5562C76.612 75.5562 77.3362 75.6535 77.9547 75.8481C78.581 76.0426 79.0978 76.315 79.5049 76.6652C79.912 77.0154 80.2173 77.4279 80.4209 77.9026C80.6244 78.3773 80.7262 78.8948 80.7262 79.4551C80.7262 80.1788 80.5579 80.852 80.2212 81.4746C79.8846 82.0971 79.3835 82.638 78.718 83.0972C78.0526 83.5485 77.2227 83.9026 76.2284 84.1594C75.2419 84.4162 74.0989 84.5446 72.7992 84.5446C72.0006 84.5446 71.2295 84.4941 70.4857 84.3929C69.742 84.2995 69.0334 84.1711 68.3601 84.0077C67.6868 83.8365 67.0526 83.638 66.4576 83.4123C65.8704 83.1866 65.3341 82.9454 64.8487 82.6886L66.3519 80.0738Z" fill="white"/>
<path d="M85.9522 73.1165H82.6052V70.5251H85.9522V66.241H89.4283V70.5251H92.7753V73.1165H89.4283V84.2995H85.9522V73.1165Z" fill="white"/>
<path d="M95.2062 77.3656C95.2062 76.4317 95.398 75.5407 95.7817 74.6924C96.1653 73.8364 96.7172 73.0815 97.4375 72.4278C98.1578 71.7741 99.0386 71.2527 100.08 70.8636C101.129 70.4745 102.319 70.2799 103.65 70.2799C104.973 70.2799 106.163 70.4784 107.22 70.8753C108.285 71.2644 109.185 71.8014 109.921 72.4862C110.665 73.171 111.232 73.9765 111.624 74.9025C112.023 75.8286 112.223 76.8208 112.223 77.8792C112.223 78.0115 112.219 78.1555 112.211 78.3111C112.211 78.459 112.203 78.5952 112.188 78.7197H99.0816C99.2304 79.1321 99.4692 79.5096 99.798 79.852C100.135 80.1944 100.554 80.4901 101.055 80.7392C101.556 80.9882 102.135 81.1827 102.793 81.3228C103.45 81.4551 104.178 81.5213 104.977 81.5213C105.776 81.5213 106.57 81.4396 107.361 81.2761C108.152 81.1049 108.907 80.8909 109.627 80.6341L110.802 83.2723C110.348 83.4824 109.886 83.6691 109.416 83.8326C108.954 83.9882 108.469 84.1205 107.96 84.2295C107.459 84.3306 106.93 84.4084 106.374 84.4629C105.826 84.5174 105.247 84.5446 104.636 84.5446C103.078 84.5446 101.712 84.3579 100.538 83.9843C99.3635 83.6108 98.3809 83.101 97.5902 82.4551C96.7994 81.8092 96.2044 81.0504 95.8051 80.1788C95.4059 79.3072 95.2062 78.3695 95.2062 77.3656ZM108.535 76.0232C108.41 75.6418 108.214 75.2878 107.948 74.9609C107.69 74.6263 107.365 74.3383 106.973 74.0971C106.582 73.8481 106.128 73.6535 105.611 73.5134C105.094 73.3733 104.527 73.3033 103.908 73.3033C103.251 73.3033 102.652 73.3772 102.112 73.5251C101.571 73.673 101.098 73.8714 100.691 74.1204C100.283 74.3695 99.9428 74.6574 99.6688 74.9843C99.4026 75.3111 99.2069 75.6574 99.0816 76.0232H108.535Z" fill="white"/>
<path d="M115.311 79.9571C115.311 79.2956 115.456 78.6925 115.746 78.1477C116.036 77.603 116.47 77.136 117.049 76.7469C117.629 76.35 118.349 76.0465 119.21 75.8364C120.079 75.6185 121.089 75.5095 122.24 75.5095C123.094 75.5095 123.99 75.5718 124.93 75.6963C125.877 75.8208 126.852 76.0115 127.854 76.2683C127.815 75.8325 127.681 75.4317 127.454 75.066C127.227 74.6924 126.91 74.3734 126.503 74.1088C126.104 73.8364 125.618 73.6263 125.047 73.4784C124.483 73.3305 123.841 73.2566 123.121 73.2566C122.73 73.2566 122.299 73.28 121.829 73.3267C121.359 73.3733 120.874 73.4434 120.373 73.5368C119.872 73.6302 119.375 73.7469 118.882 73.887C118.396 74.027 117.942 74.1944 117.519 74.3889L116.462 71.5523C116.987 71.3655 117.547 71.1943 118.142 71.0387C118.745 70.8831 119.359 70.7508 119.985 70.6418C120.612 70.5251 121.238 70.4356 121.864 70.3733C122.491 70.3111 123.098 70.2799 123.685 70.2799C126.276 70.2799 128.202 70.9375 129.463 72.2527C130.723 73.5679 131.353 75.5835 131.353 78.2995V84.2995H127.877V83.0038C127.517 83.2139 127.122 83.4123 126.691 83.5991C126.268 83.7859 125.806 83.9493 125.305 84.0894C124.804 84.2295 124.264 84.3384 123.685 84.4162C123.113 84.5018 122.506 84.5446 121.864 84.5446C120.784 84.5446 119.833 84.4279 119.011 84.1944C118.196 83.961 117.515 83.638 116.967 83.2256C116.419 82.8131 116.004 82.3306 115.722 81.7781C115.448 81.2178 115.311 80.6108 115.311 79.9571ZM118.975 79.8403C118.975 80.066 119.034 80.2839 119.152 80.494C119.269 80.6964 119.457 80.8792 119.715 81.0427C119.974 81.1983 120.303 81.3267 120.702 81.4279C121.109 81.5213 121.598 81.568 122.17 81.568C122.78 81.568 123.372 81.5135 123.943 81.4045C124.515 81.2956 125.047 81.1516 125.54 80.9726C126.033 80.7936 126.48 80.5874 126.879 80.3539C127.278 80.1205 127.611 79.8792 127.877 79.6302V79.0232C127.345 78.8753 126.816 78.7508 126.292 78.6497C125.775 78.5485 125.278 78.4707 124.8 78.4162C124.331 78.3539 123.884 78.3111 123.462 78.2878C123.047 78.2644 122.683 78.2528 122.369 78.2528C121.72 78.2528 121.179 78.2956 120.749 78.3812C120.318 78.4668 119.97 78.5835 119.704 78.7314C119.437 78.8714 119.249 79.0388 119.14 79.2333C119.03 79.4279 118.975 79.6302 118.975 79.8403Z" fill="white"/>
</svg>
